<svg xmlns="http://www.w3.org/2000/svg" xmlns:xlink="http://www.w3.org/1999/xlink" width="800" zoomAndPan="magnify" viewBox="0 0 600 599.999999" height="800" preserveAspectRatio="xMidYMid meet" version="1.0"><defs><clipPath id="bc598242bb"><rect x="0" width="508" y="0" height="488"/></clipPath></defs><g transform="matrix(1, 0, 0, 1, 30, 56)"><g clip-path="url(#bc598242bb)"><path fill="#ffffff" d="M 29.851562 267.644531 L 271.648438 464.105469 C 287.664062 477.101562 300.75 470.875 300.75 450.25 L 300.75 320.164062 L 477.898438 464.085938 C 493.914062 477.101562 507 470.875 507 450.25 L 507 37.75 C 507 17.125 493.914062 10.898438 477.898438 23.894531 L 300.75 167.820312 L 300.75 37.75 C 300.75 17.125 287.664062 10.898438 271.648438 23.894531 L 29.851562 220.355469 C 13.835938 233.351562 13.835938 254.648438 29.851562 267.644531 Z M 29.851562 267.644531 " fill-opacity="1" fill-rule="nonzero"/></g></g></svg>